<svg viewBox="0 0 1200 280" xmlns="http://www.w3.org/2000/svg">
  <defs>
    <linearGradient id="g" x1="0" y1="0" x2="1" y2="1">
      <stop offset="0" stop-color="#a87be6"/>
      <stop offset="0.5" stop-color="#7ba2ee"/>
      <stop offset="1" stop-color="#5cccef"/>
    </linearGradient>
    <linearGradient id="rule" x1="0" y1="0" x2="1" y2="0">
      <stop offset="0" stop-color="#ffffff" stop-opacity="0"/>
      <stop offset="0.5" stop-color="#ffffff" stop-opacity="0.7"/>
      <stop offset="1" stop-color="#ffffff" stop-opacity="0"/>
    </linearGradient>
    <radialGradient id="glow" cx="0.5" cy="0.5" r="0.5">
      <stop offset="0" stop-color="#ffffff" stop-opacity="0.45"/>
      <stop offset="1" stop-color="#ffffff" stop-opacity="0"/>
    </radialGradient>
  </defs>
  <path fill="url(#g)" d="M0 0 H1200 V222 C 980 250, 800 212, 600 232 S 220 252, 0 226 Z">
    <animate attributeName="d" dur="7s" repeatCount="indefinite" calcMode="spline" keyTimes="0;0.5;1" keySplines="0.42 0 0.58 1;0.42 0 0.58 1" values="M0 0 H1200 V222 C 980 250, 800 212, 600 232 S 220 252, 0 226 Z;M0 0 H1200 V230 C 980 242, 800 230, 600 240 S 220 242, 0 236 Z;M0 0 H1200 V222 C 980 250, 800 212, 600 232 S 220 252, 0 226 Z"/>
  </path>
  <ellipse cx="600" cy="142" rx="300" ry="74" fill="url(#glow)">
    <animate attributeName="opacity" values="0.2;0.5;0.2" dur="4.5s" repeatCount="indefinite"/>
  </ellipse>
  <text x="600" y="74" text-anchor="middle" font-family="ui-monospace, SFMono-Regular, Menlo, Consolas, monospace" font-size="17" fill="#ffffff" fill-opacity="0.78" letter-spacing="1">~ $ whoami <tspan font-weight="700">&#9611;<animate attributeName="opacity" values="1;1;0;0" keyTimes="0;0.5;0.5;1" dur="1.1s" repeatCount="indefinite"/></tspan></text>
  <g transform="translate(412.3,152.0)"><path d="M8.32 -0.00 L8.32 -75.92 L55.54 -75.92 L55.54 -63.86 L21.11 -63.86 L21.11 -43.58 L52.83 -43.58 L52.83 -31.51 L21.32 -31.51 L21.32 -0.00 L8.32 -0.00 Z M93.70 1.04 Q86.42 1.04 81.01 -1.77 Q75.61 -4.58 72.64 -9.72 Q69.68 -14.87 69.68 -21.84 L69.68 -35.36 Q69.68 -42.33 72.64 -47.47 Q75.61 -52.62 81.01 -55.43 Q86.42 -58.24 93.70 -58.24 Q100.88 -58.24 106.23 -55.43 Q111.59 -52.62 114.55 -47.58 Q117.52 -42.54 117.52 -35.78 L117.52 -25.38 L82.16 -25.38 L82.16 -21.42 Q82.16 -15.60 85.17 -12.63 Q88.19 -9.67 93.70 -9.67 Q97.76 -9.67 100.62 -11.07 Q103.48 -12.48 104.00 -15.18 L116.90 -15.18 Q115.54 -7.80 109.20 -3.38 Q102.86 1.04 93.70 1.04 Z M82.16 -35.78 L82.16 -33.80 L105.04 -33.90 L105.04 -35.88 Q105.04 -41.81 102.13 -45.03 Q99.22 -48.26 93.70 -48.26 Q87.98 -48.26 85.07 -44.98 Q82.16 -41.70 82.16 -35.78 Z M132.81 -0.00 L132.81 -57.20 L145.50 -57.20 L145.50 -46.49 Q146.54 -51.90 150.59 -55.07 Q154.65 -58.24 160.89 -58.24 Q169.31 -58.24 174.35 -52.62 Q179.40 -47.01 179.40 -37.54 L179.40 -0.00 L166.40 -0.00 L166.40 -35.98 Q166.40 -41.29 163.64 -44.15 Q160.89 -47.01 156.21 -47.01 Q151.32 -47.01 148.56 -44.09 Q145.81 -41.18 145.81 -35.78 L145.81 -0.00 L132.81 -0.00 Z M203.01 18.72 L203.01 7.90 L219.13 7.90 Q223.70 7.90 226.20 5.46 Q228.70 3.02 228.70 -1.14 L228.70 -4.58 L228.90 -13.52 Q227.14 -8.74 223.24 -6.08 Q219.34 -3.43 213.72 -3.43 Q204.98 -3.43 199.83 -9.29 Q194.69 -15.18 194.69 -25.27 L194.69 -36.40 Q194.69 -46.38 199.83 -52.31 Q204.98 -58.24 213.72 -58.24 Q219.34 -58.24 223.24 -55.59 Q227.14 -52.94 228.90 -48.05 L228.90 -57.20 L241.59 -57.20 L241.59 -0.83 Q241.59 8.22 235.61 13.47 Q229.63 18.72 219.34 18.72 L203.01 18.72 Z M218.09 -14.56 Q223.08 -14.56 225.83 -17.52 Q228.59 -20.49 228.59 -25.79 L228.59 -35.78 Q228.59 -41.08 225.83 -44.04 Q223.08 -47.01 218.09 -47.01 Q213.10 -47.01 210.39 -44.15 Q207.69 -41.29 207.69 -36.19 L207.69 -25.38 Q207.69 -20.28 210.39 -17.42 Q213.10 -14.56 218.09 -14.56 Z M257.71 -0.00 L257.71 -11.75 L287.56 -45.76 L258.65 -45.76 L258.65 -57.20 L302.74 -57.20 L302.74 -45.45 L272.58 -11.44 L303.89 -11.44 L303.89 -0.00 L257.71 -0.00 Z M343.30 1.04 Q336.02 1.04 330.61 -1.77 Q325.21 -4.58 322.24 -9.72 Q319.28 -14.87 319.28 -21.84 L319.28 -35.36 Q319.28 -42.33 322.24 -47.47 Q325.21 -52.62 330.61 -55.43 Q336.02 -58.24 343.30 -58.24 Q350.48 -58.24 355.83 -55.43 Q361.19 -52.62 364.15 -47.58 Q367.12 -42.54 367.12 -35.78 L367.12 -25.38 L331.76 -25.38 L331.76 -21.42 Q331.76 -15.60 334.77 -12.63 Q337.79 -9.67 343.30 -9.67 Q347.36 -9.67 350.22 -11.07 Q353.08 -12.48 353.60 -15.18 L366.50 -15.18 Q365.14 -7.80 358.80 -3.38 Q352.46 1.04 343.30 1.04 Z M331.76 -35.78 L331.76 -33.80 L354.64 -33.90 L354.64 -35.88 Q354.64 -41.81 351.73 -45.03 Q348.82 -48.26 343.30 -48.26 Q337.58 -48.26 334.67 -44.98 Q331.76 -41.70 331.76 -35.78 Z" fill="#ffffff"/></g>
  <rect x="470" y="178" width="260" height="2" rx="1" fill="url(#rule)"/>
  <text x="600" y="208" text-anchor="middle" font-family="ui-monospace, SFMono-Regular, Menlo, Consolas, monospace" font-size="18" fill="#ffffff" letter-spacing="2">Master's @ Cornell Tech  ·  AI Agents  ·  Open Source</text>
</svg>
